<mxfile host="app.diagrams.net" modified="2021-03-23T07:04:51.258Z" agent="5.0 (Windows NT 10.0; Win64; x64) AppleWebKit/537.36 (KHTML, like Gecko) Chrome/89.0.4389.90 Safari/537.36" etag="-lWkIDij0F60iuqzL9gh" version="14.4.9" type="github" pages="3">
  <diagram id="PMMlQcvQIBsOMHkF39KB" name="业务上行和反馈流程">
    <mxGraphModel dx="1422" dy="772" grid="1" gridSize="10" guides="1" tooltips="1" connect="1" arrows="1" fold="1" page="1" pageScale="1" pageWidth="827" pageHeight="1169" math="0" shadow="0">
      <root>
        <mxCell id="0" />
        <mxCell id="1" parent="0" />
        <mxCell id="ZTwaRCsqwbrmKUwLg62D-1" value="开始" style="rounded=0;whiteSpace=wrap;html=1;" vertex="1" parent="1">
          <mxGeometry x="250" y="40" width="120" height="60" as="geometry" />
        </mxCell>
        <mxCell id="ZTwaRCsqwbrmKUwLg62D-2" value="医疗卫生机构系统" style="rounded=0;whiteSpace=wrap;html=1;" vertex="1" parent="1">
          <mxGeometry x="250" y="170" width="120" height="60" as="geometry" />
        </mxCell>
        <mxCell id="ZTwaRCsqwbrmKUwLg62D-3" value="" style="endArrow=classic;html=1;exitX=0.5;exitY=1;exitDx=0;exitDy=0;" edge="1" parent="1" source="ZTwaRCsqwbrmKUwLg62D-1" target="ZTwaRCsqwbrmKUwLg62D-2">
          <mxGeometry width="50" height="50" relative="1" as="geometry">
            <mxPoint x="390" y="420" as="sourcePoint" />
            <mxPoint x="440" y="370" as="targetPoint" />
          </mxGeometry>
        </mxCell>
        <mxCell id="ZTwaRCsqwbrmKUwLg62D-4" value="西城区数据共享与交换系统" style="rounded=0;whiteSpace=wrap;html=1;" vertex="1" parent="1">
          <mxGeometry x="250" y="300" width="120" height="60" as="geometry" />
        </mxCell>
        <mxCell id="ZTwaRCsqwbrmKUwLg62D-5" value="" style="endArrow=classic;html=1;exitX=0.5;exitY=1;exitDx=0;exitDy=0;" edge="1" parent="1" source="ZTwaRCsqwbrmKUwLg62D-2" target="ZTwaRCsqwbrmKUwLg62D-4">
          <mxGeometry width="50" height="50" relative="1" as="geometry">
            <mxPoint x="320" y="110" as="sourcePoint" />
            <mxPoint x="320" y="180" as="targetPoint" />
          </mxGeometry>
        </mxCell>
        <mxCell id="ZTwaRCsqwbrmKUwLg62D-7" value="XML信息" style="text;html=1;strokeColor=none;fillColor=none;align=center;verticalAlign=middle;whiteSpace=wrap;rounded=0;" vertex="1" parent="1">
          <mxGeometry x="230" y="260" width="80" height="20" as="geometry" />
        </mxCell>
        <mxCell id="ZTwaRCsqwbrmKUwLg62D-10" value="存储XML信息" style="rounded=0;whiteSpace=wrap;html=1;" vertex="1" parent="1">
          <mxGeometry x="470" y="310" width="120" height="60" as="geometry" />
        </mxCell>
        <mxCell id="ZTwaRCsqwbrmKUwLg62D-11" value="" style="endArrow=classic;html=1;entryX=1;entryY=0.5;entryDx=0;entryDy=0;exitX=0.5;exitY=0;exitDx=0;exitDy=0;" edge="1" parent="1" source="ZTwaRCsqwbrmKUwLg62D-10" target="ZTwaRCsqwbrmKUwLg62D-2">
          <mxGeometry width="50" height="50" relative="1" as="geometry">
            <mxPoint x="390" y="410" as="sourcePoint" />
            <mxPoint x="440" y="360" as="targetPoint" />
            <Array as="points">
              <mxPoint x="530" y="200" />
            </Array>
          </mxGeometry>
        </mxCell>
        <mxCell id="ZTwaRCsqwbrmKUwLg62D-12" value="反馈XML信息" style="text;html=1;strokeColor=none;fillColor=none;align=center;verticalAlign=middle;whiteSpace=wrap;rounded=0;" vertex="1" parent="1">
          <mxGeometry x="510" y="170" width="80" height="20" as="geometry" />
        </mxCell>
        <mxCell id="ZTwaRCsqwbrmKUwLg62D-14" value="西城区数据交换平台" style="rounded=0;whiteSpace=wrap;html=1;" vertex="1" parent="1">
          <mxGeometry x="250" y="440" width="120" height="60" as="geometry" />
        </mxCell>
        <mxCell id="ZTwaRCsqwbrmKUwLg62D-15" value="" style="endArrow=classic;html=1;" edge="1" parent="1" target="ZTwaRCsqwbrmKUwLg62D-14">
          <mxGeometry width="50" height="50" relative="1" as="geometry">
            <mxPoint x="311" y="360" as="sourcePoint" />
            <mxPoint x="320" y="310" as="targetPoint" />
          </mxGeometry>
        </mxCell>
        <mxCell id="ZTwaRCsqwbrmKUwLg62D-16" value="XML信息" style="text;html=1;strokeColor=none;fillColor=none;align=center;verticalAlign=middle;whiteSpace=wrap;rounded=0;" vertex="1" parent="1">
          <mxGeometry x="230" y="390" width="80" height="20" as="geometry" />
        </mxCell>
        <mxCell id="ZTwaRCsqwbrmKUwLg62D-17" value="存储XML信息" style="rounded=0;whiteSpace=wrap;html=1;" vertex="1" parent="1">
          <mxGeometry x="470" y="440" width="120" height="60" as="geometry" />
        </mxCell>
        <mxCell id="ZTwaRCsqwbrmKUwLg62D-18" value="" style="endArrow=classic;html=1;entryX=0;entryY=0.5;entryDx=0;entryDy=0;exitX=1;exitY=0.5;exitDx=0;exitDy=0;" edge="1" parent="1" source="ZTwaRCsqwbrmKUwLg62D-14" target="ZTwaRCsqwbrmKUwLg62D-17">
          <mxGeometry width="50" height="50" relative="1" as="geometry">
            <mxPoint x="321" y="370" as="sourcePoint" />
            <mxPoint x="320.27272727272725" y="450" as="targetPoint" />
          </mxGeometry>
        </mxCell>
        <mxCell id="ZTwaRCsqwbrmKUwLg62D-19" value="" style="endArrow=classic;html=1;entryX=0.5;entryY=1;entryDx=0;entryDy=0;exitX=0.5;exitY=0;exitDx=0;exitDy=0;" edge="1" parent="1" source="ZTwaRCsqwbrmKUwLg62D-17" target="ZTwaRCsqwbrmKUwLg62D-10">
          <mxGeometry width="50" height="50" relative="1" as="geometry">
            <mxPoint x="380" y="480" as="sourcePoint" />
            <mxPoint x="480" y="480" as="targetPoint" />
          </mxGeometry>
        </mxCell>
        <mxCell id="ZTwaRCsqwbrmKUwLg62D-20" value="北京市疾控" style="rounded=0;whiteSpace=wrap;html=1;" vertex="1" parent="1">
          <mxGeometry x="250" y="570" width="120" height="60" as="geometry" />
        </mxCell>
        <mxCell id="ZTwaRCsqwbrmKUwLg62D-21" value="XML信息" style="text;html=1;strokeColor=none;fillColor=none;align=center;verticalAlign=middle;whiteSpace=wrap;rounded=0;" vertex="1" parent="1">
          <mxGeometry x="220" y="520" width="80" height="20" as="geometry" />
        </mxCell>
        <mxCell id="ZTwaRCsqwbrmKUwLg62D-22" value="" style="endArrow=classic;html=1;" edge="1" parent="1" target="ZTwaRCsqwbrmKUwLg62D-20">
          <mxGeometry width="50" height="50" relative="1" as="geometry">
            <mxPoint x="312" y="500" as="sourcePoint" />
            <mxPoint x="320.27272727272725" y="450" as="targetPoint" />
          </mxGeometry>
        </mxCell>
        <mxCell id="ZTwaRCsqwbrmKUwLg62D-23" value="存储XMl信息" style="rounded=0;whiteSpace=wrap;html=1;" vertex="1" parent="1">
          <mxGeometry x="470" y="570" width="120" height="60" as="geometry" />
        </mxCell>
        <mxCell id="ZTwaRCsqwbrmKUwLg62D-24" value="" style="endArrow=classic;html=1;entryX=0;entryY=0.5;entryDx=0;entryDy=0;exitX=1;exitY=0.5;exitDx=0;exitDy=0;" edge="1" parent="1" source="ZTwaRCsqwbrmKUwLg62D-20" target="ZTwaRCsqwbrmKUwLg62D-23">
          <mxGeometry width="50" height="50" relative="1" as="geometry">
            <mxPoint x="322" y="510" as="sourcePoint" />
            <mxPoint x="320.5999999999999" y="580" as="targetPoint" />
          </mxGeometry>
        </mxCell>
        <mxCell id="ZTwaRCsqwbrmKUwLg62D-25" value="" style="endArrow=classic;html=1;entryX=0.5;entryY=0;entryDx=0;entryDy=0;exitX=0.5;exitY=1;exitDx=0;exitDy=0;" edge="1" parent="1" source="ZTwaRCsqwbrmKUwLg62D-17" target="ZTwaRCsqwbrmKUwLg62D-23">
          <mxGeometry width="50" height="50" relative="1" as="geometry">
            <mxPoint x="380" y="610" as="sourcePoint" />
            <mxPoint x="480" y="610" as="targetPoint" />
          </mxGeometry>
        </mxCell>
        <mxCell id="ZTwaRCsqwbrmKUwLg62D-26" value="工具包" style="rounded=0;whiteSpace=wrap;html=1;" vertex="1" parent="1">
          <mxGeometry x="250" y="680" width="120" height="60" as="geometry" />
        </mxCell>
        <mxCell id="ZTwaRCsqwbrmKUwLg62D-27" value="" style="endArrow=classic;html=1;exitX=0.5;exitY=1;exitDx=0;exitDy=0;" edge="1" parent="1" source="ZTwaRCsqwbrmKUwLg62D-20" target="ZTwaRCsqwbrmKUwLg62D-26">
          <mxGeometry width="50" height="50" relative="1" as="geometry">
            <mxPoint x="322" y="510" as="sourcePoint" />
            <mxPoint x="320.5999999999999" y="580" as="targetPoint" />
          </mxGeometry>
        </mxCell>
        <mxCell id="ZTwaRCsqwbrmKUwLg62D-28" value="XML信息" style="text;html=1;strokeColor=none;fillColor=none;align=center;verticalAlign=middle;whiteSpace=wrap;rounded=0;" vertex="1" parent="1">
          <mxGeometry x="230" y="650" width="80" height="20" as="geometry" />
        </mxCell>
        <mxCell id="ZTwaRCsqwbrmKUwLg62D-29" value="校验" style="rounded=0;whiteSpace=wrap;html=1;" vertex="1" parent="1">
          <mxGeometry x="250" y="810" width="120" height="60" as="geometry" />
        </mxCell>
        <mxCell id="ZTwaRCsqwbrmKUwLg62D-30" value="XML信息" style="text;html=1;strokeColor=none;fillColor=none;align=center;verticalAlign=middle;whiteSpace=wrap;rounded=0;" vertex="1" parent="1">
          <mxGeometry x="220" y="760" width="80" height="20" as="geometry" />
        </mxCell>
        <mxCell id="ZTwaRCsqwbrmKUwLg62D-31" value="" style="endArrow=classic;html=1;entryX=0.5;entryY=0;entryDx=0;entryDy=0;" edge="1" parent="1" target="ZTwaRCsqwbrmKUwLg62D-29">
          <mxGeometry width="50" height="50" relative="1" as="geometry">
            <mxPoint x="310" y="740" as="sourcePoint" />
            <mxPoint x="320" y="690" as="targetPoint" />
          </mxGeometry>
        </mxCell>
        <mxCell id="ZTwaRCsqwbrmKUwLg62D-32" value="接收并更新错误信息" style="rounded=0;whiteSpace=wrap;html=1;" vertex="1" parent="1">
          <mxGeometry x="470" y="730" width="120" height="60" as="geometry" />
        </mxCell>
        <mxCell id="ZTwaRCsqwbrmKUwLg62D-33" value="" style="endArrow=classic;html=1;exitX=1;exitY=0.5;exitDx=0;exitDy=0;entryX=0.5;entryY=1;entryDx=0;entryDy=0;" edge="1" parent="1" source="ZTwaRCsqwbrmKUwLg62D-29" target="ZTwaRCsqwbrmKUwLg62D-32">
          <mxGeometry width="50" height="50" relative="1" as="geometry">
            <mxPoint x="320" y="750" as="sourcePoint" />
            <mxPoint x="600" y="840" as="targetPoint" />
            <Array as="points">
              <mxPoint x="530" y="840" />
            </Array>
          </mxGeometry>
        </mxCell>
        <mxCell id="ZTwaRCsqwbrmKUwLg62D-34" value="失败" style="text;html=1;strokeColor=none;fillColor=none;align=center;verticalAlign=middle;whiteSpace=wrap;rounded=0;" vertex="1" parent="1">
          <mxGeometry x="440" y="840" width="80" height="20" as="geometry" />
        </mxCell>
        <mxCell id="ZTwaRCsqwbrmKUwLg62D-36" value="" style="endArrow=classic;html=1;exitX=0.5;exitY=0;exitDx=0;exitDy=0;entryX=0.5;entryY=1;entryDx=0;entryDy=0;" edge="1" parent="1" source="ZTwaRCsqwbrmKUwLg62D-32" target="ZTwaRCsqwbrmKUwLg62D-23">
          <mxGeometry width="50" height="50" relative="1" as="geometry">
            <mxPoint x="380" y="830" as="sourcePoint" />
            <mxPoint x="530" y="640" as="targetPoint" />
            <Array as="points">
              <mxPoint x="530" y="680" />
            </Array>
          </mxGeometry>
        </mxCell>
        <mxCell id="ZTwaRCsqwbrmKUwLg62D-37" value="国家疫情网" style="rounded=0;whiteSpace=wrap;html=1;" vertex="1" parent="1">
          <mxGeometry x="250" y="920" width="120" height="60" as="geometry" />
        </mxCell>
        <mxCell id="ZTwaRCsqwbrmKUwLg62D-38" value="" style="endArrow=classic;html=1;entryX=0.5;entryY=0;entryDx=0;entryDy=0;" edge="1" parent="1" target="ZTwaRCsqwbrmKUwLg62D-37">
          <mxGeometry width="50" height="50" relative="1" as="geometry">
            <mxPoint x="310" y="870" as="sourcePoint" />
            <mxPoint x="320" y="820" as="targetPoint" />
          </mxGeometry>
        </mxCell>
        <mxCell id="ZTwaRCsqwbrmKUwLg62D-39" value="成功" style="text;html=1;strokeColor=none;fillColor=none;align=center;verticalAlign=middle;whiteSpace=wrap;rounded=0;" vertex="1" parent="1">
          <mxGeometry x="230" y="880" width="80" height="20" as="geometry" />
        </mxCell>
        <mxCell id="ZTwaRCsqwbrmKUwLg62D-40" value="结束" style="rounded=0;whiteSpace=wrap;html=1;" vertex="1" parent="1">
          <mxGeometry x="250" y="1020" width="120" height="60" as="geometry" />
        </mxCell>
        <mxCell id="ZTwaRCsqwbrmKUwLg62D-42" value="" style="endArrow=classic;html=1;" edge="1" parent="1" target="ZTwaRCsqwbrmKUwLg62D-40">
          <mxGeometry width="50" height="50" relative="1" as="geometry">
            <mxPoint x="311" y="980" as="sourcePoint" />
            <mxPoint x="320" y="820" as="targetPoint" />
          </mxGeometry>
        </mxCell>
        <mxCell id="ZTwaRCsqwbrmKUwLg62D-43" value="业务上行和反馈流程" style="text;html=1;strokeColor=none;fillColor=none;align=center;verticalAlign=middle;whiteSpace=wrap;rounded=0;" vertex="1" parent="1">
          <mxGeometry x="80" y="40" width="120" height="20" as="geometry" />
        </mxCell>
      </root>
    </mxGraphModel>
  </diagram>
  <diagram id="KNQo3qKVxRshBpqsfJHP" name="业务下行流程">
    <mxGraphModel dx="1422" dy="772" grid="1" gridSize="10" guides="1" tooltips="1" connect="1" arrows="1" fold="1" page="1" pageScale="1" pageWidth="827" pageHeight="1169" math="0" shadow="0">
      <root>
        <mxCell id="0O_rt--FqAl1_d-jMUc9-0" />
        <mxCell id="0O_rt--FqAl1_d-jMUc9-1" parent="0O_rt--FqAl1_d-jMUc9-0" />
        <mxCell id="IIZmnG7oonDoUPsVLoXr-0" value="开始" style="rounded=0;whiteSpace=wrap;html=1;" vertex="1" parent="0O_rt--FqAl1_d-jMUc9-1">
          <mxGeometry x="330" y="70" width="120" height="60" as="geometry" />
        </mxCell>
        <mxCell id="IIZmnG7oonDoUPsVLoXr-1" value="国家数据交换" style="rounded=0;whiteSpace=wrap;html=1;" vertex="1" parent="0O_rt--FqAl1_d-jMUc9-1">
          <mxGeometry x="330" y="200" width="120" height="60" as="geometry" />
        </mxCell>
        <mxCell id="IIZmnG7oonDoUPsVLoXr-2" value="" style="endArrow=classic;html=1;exitX=0.5;exitY=1;exitDx=0;exitDy=0;entryX=0.5;entryY=0;entryDx=0;entryDy=0;" edge="1" parent="0O_rt--FqAl1_d-jMUc9-1" source="IIZmnG7oonDoUPsVLoXr-0" target="IIZmnG7oonDoUPsVLoXr-1">
          <mxGeometry width="50" height="50" relative="1" as="geometry">
            <mxPoint x="390" y="420" as="sourcePoint" />
            <mxPoint x="440" y="370" as="targetPoint" />
          </mxGeometry>
        </mxCell>
        <mxCell id="IIZmnG7oonDoUPsVLoXr-3" value="指定文件夹" style="rounded=0;whiteSpace=wrap;html=1;" vertex="1" parent="0O_rt--FqAl1_d-jMUc9-1">
          <mxGeometry x="330" y="320" width="120" height="60" as="geometry" />
        </mxCell>
        <mxCell id="IIZmnG7oonDoUPsVLoXr-4" value="" style="endArrow=classic;html=1;" edge="1" parent="0O_rt--FqAl1_d-jMUc9-1" target="IIZmnG7oonDoUPsVLoXr-3">
          <mxGeometry width="50" height="50" relative="1" as="geometry">
            <mxPoint x="391" y="260" as="sourcePoint" />
            <mxPoint x="400" y="210" as="targetPoint" />
          </mxGeometry>
        </mxCell>
        <mxCell id="IIZmnG7oonDoUPsVLoXr-5" value="推送数据" style="text;html=1;strokeColor=none;fillColor=none;align=center;verticalAlign=middle;whiteSpace=wrap;rounded=0;" vertex="1" parent="0O_rt--FqAl1_d-jMUc9-1">
          <mxGeometry x="414" y="280" width="56" height="20" as="geometry" />
        </mxCell>
        <mxCell id="IIZmnG7oonDoUPsVLoXr-6" value="北京市数据交换平台" style="rounded=0;whiteSpace=wrap;html=1;" vertex="1" parent="0O_rt--FqAl1_d-jMUc9-1">
          <mxGeometry x="330" y="440" width="120" height="60" as="geometry" />
        </mxCell>
        <mxCell id="IIZmnG7oonDoUPsVLoXr-7" value="" style="endArrow=classic;html=1;" edge="1" parent="0O_rt--FqAl1_d-jMUc9-1" target="IIZmnG7oonDoUPsVLoXr-6">
          <mxGeometry width="50" height="50" relative="1" as="geometry">
            <mxPoint x="392" y="380" as="sourcePoint" />
            <mxPoint x="400.33333333333326" y="330" as="targetPoint" />
          </mxGeometry>
        </mxCell>
        <mxCell id="IIZmnG7oonDoUPsVLoXr-8" value="读取数据" style="text;html=1;strokeColor=none;fillColor=none;align=center;verticalAlign=middle;whiteSpace=wrap;rounded=0;" vertex="1" parent="0O_rt--FqAl1_d-jMUc9-1">
          <mxGeometry x="414" y="400" width="56" height="20" as="geometry" />
        </mxCell>
        <mxCell id="IIZmnG7oonDoUPsVLoXr-9" value="指定文件夹" style="rounded=0;whiteSpace=wrap;html=1;" vertex="1" parent="0O_rt--FqAl1_d-jMUc9-1">
          <mxGeometry x="330" y="555" width="120" height="60" as="geometry" />
        </mxCell>
        <mxCell id="IIZmnG7oonDoUPsVLoXr-10" value="" style="endArrow=classic;html=1;exitX=0.5;exitY=1;exitDx=0;exitDy=0;" edge="1" parent="0O_rt--FqAl1_d-jMUc9-1" source="IIZmnG7oonDoUPsVLoXr-6" target="IIZmnG7oonDoUPsVLoXr-9">
          <mxGeometry width="50" height="50" relative="1" as="geometry">
            <mxPoint x="402" y="390" as="sourcePoint" />
            <mxPoint x="400.75" y="440" as="targetPoint" />
          </mxGeometry>
        </mxCell>
        <mxCell id="IIZmnG7oonDoUPsVLoXr-11" value="西城区数据交换平台" style="rounded=0;whiteSpace=wrap;html=1;" vertex="1" parent="0O_rt--FqAl1_d-jMUc9-1">
          <mxGeometry x="170" y="660" width="120" height="60" as="geometry" />
        </mxCell>
        <mxCell id="IIZmnG7oonDoUPsVLoXr-12" value="西城数据中心" style="rounded=0;whiteSpace=wrap;html=1;" vertex="1" parent="0O_rt--FqAl1_d-jMUc9-1">
          <mxGeometry x="510" y="660" width="120" height="60" as="geometry" />
        </mxCell>
        <mxCell id="IIZmnG7oonDoUPsVLoXr-13" value="" style="endArrow=classic;html=1;exitX=0.5;exitY=1;exitDx=0;exitDy=0;entryX=0.5;entryY=0;entryDx=0;entryDy=0;" edge="1" parent="0O_rt--FqAl1_d-jMUc9-1" source="IIZmnG7oonDoUPsVLoXr-9" target="IIZmnG7oonDoUPsVLoXr-12">
          <mxGeometry width="50" height="50" relative="1" as="geometry">
            <mxPoint x="390" y="410" as="sourcePoint" />
            <mxPoint x="130" y="470" as="targetPoint" />
          </mxGeometry>
        </mxCell>
        <mxCell id="IIZmnG7oonDoUPsVLoXr-16" value="" style="endArrow=classic;html=1;entryX=0.5;entryY=0;entryDx=0;entryDy=0;exitX=0.5;exitY=1;exitDx=0;exitDy=0;" edge="1" parent="0O_rt--FqAl1_d-jMUc9-1" source="IIZmnG7oonDoUPsVLoXr-9" target="IIZmnG7oonDoUPsVLoXr-11">
          <mxGeometry width="50" height="50" relative="1" as="geometry">
            <mxPoint x="390" y="410" as="sourcePoint" />
            <mxPoint x="440" y="360" as="targetPoint" />
          </mxGeometry>
        </mxCell>
        <mxCell id="IIZmnG7oonDoUPsVLoXr-17" value="提供调阅服务" style="rounded=0;whiteSpace=wrap;html=1;" vertex="1" parent="0O_rt--FqAl1_d-jMUc9-1">
          <mxGeometry x="510" y="760" width="120" height="60" as="geometry" />
        </mxCell>
        <mxCell id="IIZmnG7oonDoUPsVLoXr-18" value="" style="endArrow=classic;html=1;exitX=0.5;exitY=1;exitDx=0;exitDy=0;" edge="1" parent="0O_rt--FqAl1_d-jMUc9-1" source="IIZmnG7oonDoUPsVLoXr-12" target="IIZmnG7oonDoUPsVLoXr-17">
          <mxGeometry width="50" height="50" relative="1" as="geometry">
            <mxPoint x="400" y="625" as="sourcePoint" />
            <mxPoint x="580" y="670" as="targetPoint" />
          </mxGeometry>
        </mxCell>
        <mxCell id="IIZmnG7oonDoUPsVLoXr-19" value="结束" style="rounded=0;whiteSpace=wrap;html=1;" vertex="1" parent="0O_rt--FqAl1_d-jMUc9-1">
          <mxGeometry x="354" y="930" width="120" height="60" as="geometry" />
        </mxCell>
        <mxCell id="IIZmnG7oonDoUPsVLoXr-22" value="" style="endArrow=classic;html=1;exitX=0.5;exitY=1;exitDx=0;exitDy=0;entryX=0.5;entryY=0;entryDx=0;entryDy=0;" edge="1" parent="0O_rt--FqAl1_d-jMUc9-1" source="IIZmnG7oonDoUPsVLoXr-11" target="IIZmnG7oonDoUPsVLoXr-19">
          <mxGeometry width="50" height="50" relative="1" as="geometry">
            <mxPoint x="580" y="730" as="sourcePoint" />
            <mxPoint x="580" y="800" as="targetPoint" />
          </mxGeometry>
        </mxCell>
        <mxCell id="IIZmnG7oonDoUPsVLoXr-23" value="" style="endArrow=classic;html=1;exitX=0.5;exitY=1;exitDx=0;exitDy=0;entryX=0.5;entryY=0;entryDx=0;entryDy=0;" edge="1" parent="0O_rt--FqAl1_d-jMUc9-1" source="IIZmnG7oonDoUPsVLoXr-17" target="IIZmnG7oonDoUPsVLoXr-19">
          <mxGeometry width="50" height="50" relative="1" as="geometry">
            <mxPoint x="240" y="730" as="sourcePoint" />
            <mxPoint x="420" y="900" as="targetPoint" />
          </mxGeometry>
        </mxCell>
        <mxCell id="IIZmnG7oonDoUPsVLoXr-24" value="推送西城区数据" style="text;html=1;strokeColor=none;fillColor=none;align=center;verticalAlign=middle;whiteSpace=wrap;rounded=0;" vertex="1" parent="0O_rt--FqAl1_d-jMUc9-1">
          <mxGeometry x="400" y="520" width="96" height="20" as="geometry" />
        </mxCell>
      </root>
    </mxGraphModel>
  </diagram>
  <diagram id="pdfJJ0tl_pqJnrvehT2a" name="功能开发流程导图">
    <mxGraphModel dx="1422" dy="772" grid="1" gridSize="10" guides="1" tooltips="1" connect="1" arrows="1" fold="1" page="1" pageScale="1" pageWidth="827" pageHeight="1169" math="0" shadow="0">
      <root>
        <mxCell id="k6OKG1xSVsAbGiAiQeUu-0" />
        <mxCell id="k6OKG1xSVsAbGiAiQeUu-1" parent="k6OKG1xSVsAbGiAiQeUu-0" />
        <mxCell id="tQaDUT1nKK31skXd76Dc-2" value="医疗机构" style="rounded=0;whiteSpace=wrap;html=1;" vertex="1" parent="k6OKG1xSVsAbGiAiQeUu-1">
          <mxGeometry x="60" y="110" width="120" height="60" as="geometry" />
        </mxCell>
        <mxCell id="tQaDUT1nKK31skXd76Dc-4" value="西城数据交换平台&lt;br&gt;前置库" style="rounded=0;whiteSpace=wrap;html=1;" vertex="1" parent="k6OKG1xSVsAbGiAiQeUu-1">
          <mxGeometry x="370" y="110" width="120" height="60" as="geometry" />
        </mxCell>
        <mxCell id="tQaDUT1nKK31skXd76Dc-7" value="前置接口" style="rounded=0;whiteSpace=wrap;html=1;" vertex="1" parent="k6OKG1xSVsAbGiAiQeUu-1">
          <mxGeometry x="210" y="110" width="120" height="60" as="geometry" />
        </mxCell>
        <mxCell id="tQaDUT1nKK31skXd76Dc-8" value="数据中心" style="rounded=0;whiteSpace=wrap;html=1;" vertex="1" parent="k6OKG1xSVsAbGiAiQeUu-1">
          <mxGeometry x="530" y="110" width="120" height="60" as="geometry" />
        </mxCell>
        <mxCell id="tQaDUT1nKK31skXd76Dc-10" value="西城数据交换平台" style="rounded=0;whiteSpace=wrap;html=1;" vertex="1" parent="k6OKG1xSVsAbGiAiQeUu-1">
          <mxGeometry x="690" y="110" width="120" height="60" as="geometry" />
        </mxCell>
        <mxCell id="QwICaWlnhPRNakRHLjsk-1" value="" style="endArrow=none;dashed=1;html=1;entryX=0.5;entryY=1;entryDx=0;entryDy=0;" edge="1" parent="k6OKG1xSVsAbGiAiQeUu-1" target="tQaDUT1nKK31skXd76Dc-2">
          <mxGeometry width="50" height="50" relative="1" as="geometry">
            <mxPoint x="120" y="770" as="sourcePoint" />
            <mxPoint x="250" y="280" as="targetPoint" />
          </mxGeometry>
        </mxCell>
        <mxCell id="QwICaWlnhPRNakRHLjsk-3" value="" style="endArrow=none;dashed=1;html=1;entryX=0.5;entryY=1;entryDx=0;entryDy=0;" edge="1" parent="k6OKG1xSVsAbGiAiQeUu-1">
          <mxGeometry width="50" height="50" relative="1" as="geometry">
            <mxPoint x="429.5" y="770" as="sourcePoint" />
            <mxPoint x="429.5" y="170" as="targetPoint" />
          </mxGeometry>
        </mxCell>
        <mxCell id="QwICaWlnhPRNakRHLjsk-4" value="" style="endArrow=none;dashed=1;html=1;entryX=0.5;entryY=1;entryDx=0;entryDy=0;" edge="1" parent="k6OKG1xSVsAbGiAiQeUu-1" target="tQaDUT1nKK31skXd76Dc-8">
          <mxGeometry width="50" height="50" relative="1" as="geometry">
            <mxPoint x="589.5" y="770" as="sourcePoint" />
            <mxPoint x="589.5" y="170" as="targetPoint" />
          </mxGeometry>
        </mxCell>
        <mxCell id="QwICaWlnhPRNakRHLjsk-5" value="" style="endArrow=none;dashed=1;html=1;entryX=0.5;entryY=1;entryDx=0;entryDy=0;" edge="1" parent="k6OKG1xSVsAbGiAiQeUu-1" target="tQaDUT1nKK31skXd76Dc-10">
          <mxGeometry width="50" height="50" relative="1" as="geometry">
            <mxPoint x="749.5" y="770" as="sourcePoint" />
            <mxPoint x="750" y="170" as="targetPoint" />
          </mxGeometry>
        </mxCell>
        <mxCell id="QwICaWlnhPRNakRHLjsk-7" value="" style="endArrow=classic;html=1;" edge="1" parent="k6OKG1xSVsAbGiAiQeUu-1">
          <mxGeometry width="50" height="50" relative="1" as="geometry">
            <mxPoint x="100" y="180" as="sourcePoint" />
            <mxPoint x="100" y="240" as="targetPoint" />
            <Array as="points">
              <mxPoint x="80" y="210" />
            </Array>
          </mxGeometry>
        </mxCell>
        <mxCell id="QwICaWlnhPRNakRHLjsk-8" value="字典映射" style="text;html=1;strokeColor=none;fillColor=none;align=center;verticalAlign=middle;whiteSpace=wrap;rounded=0;" vertex="1" parent="k6OKG1xSVsAbGiAiQeUu-1">
          <mxGeometry x="30" y="200" width="50" height="20" as="geometry" />
        </mxCell>
        <mxCell id="QwICaWlnhPRNakRHLjsk-9" value="" style="endArrow=classic;html=1;" edge="1" parent="k6OKG1xSVsAbGiAiQeUu-1">
          <mxGeometry width="50" height="50" relative="1" as="geometry">
            <mxPoint x="130" y="270" as="sourcePoint" />
            <mxPoint x="420" y="270" as="targetPoint" />
          </mxGeometry>
        </mxCell>
        <mxCell id="QwICaWlnhPRNakRHLjsk-14" value="" style="endArrow=classic;html=1;" edge="1" parent="k6OKG1xSVsAbGiAiQeUu-1">
          <mxGeometry width="50" height="50" relative="1" as="geometry">
            <mxPoint x="130" y="350" as="sourcePoint" />
            <mxPoint x="260" y="350" as="targetPoint" />
          </mxGeometry>
        </mxCell>
        <mxCell id="QwICaWlnhPRNakRHLjsk-15" value="1.2 上传传染病数据" style="text;html=1;strokeColor=none;fillColor=none;align=center;verticalAlign=middle;whiteSpace=wrap;rounded=0;" vertex="1" parent="k6OKG1xSVsAbGiAiQeUu-1">
          <mxGeometry x="130" y="320" width="130" height="20" as="geometry" />
        </mxCell>
        <mxCell id="QwICaWlnhPRNakRHLjsk-17" value="" style="endArrow=classic;html=1;" edge="1" parent="k6OKG1xSVsAbGiAiQeUu-1">
          <mxGeometry width="50" height="50" relative="1" as="geometry">
            <mxPoint x="260" y="400" as="sourcePoint" />
            <mxPoint x="125" y="400" as="targetPoint" />
          </mxGeometry>
        </mxCell>
        <mxCell id="QwICaWlnhPRNakRHLjsk-10" value="1.1 上传传染病数据" style="text;html=1;strokeColor=none;fillColor=none;align=center;verticalAlign=middle;whiteSpace=wrap;rounded=0;" vertex="1" parent="k6OKG1xSVsAbGiAiQeUu-1">
          <mxGeometry x="190" y="240" width="130" height="20" as="geometry" />
        </mxCell>
        <mxCell id="QwICaWlnhPRNakRHLjsk-23" value="" style="endArrow=none;dashed=1;html=1;entryX=0.5;entryY=1;entryDx=0;entryDy=0;" edge="1" parent="k6OKG1xSVsAbGiAiQeUu-1" target="tQaDUT1nKK31skXd76Dc-7">
          <mxGeometry width="50" height="50" relative="1" as="geometry">
            <mxPoint x="269.5" y="770" as="sourcePoint" />
            <mxPoint x="269.5" y="170" as="targetPoint" />
          </mxGeometry>
        </mxCell>
        <mxCell id="QwICaWlnhPRNakRHLjsk-24" value="4.2 返回成功消息" style="text;html=1;strokeColor=none;fillColor=none;align=center;verticalAlign=middle;whiteSpace=wrap;rounded=0;" vertex="1" parent="k6OKG1xSVsAbGiAiQeUu-1">
          <mxGeometry x="130" y="410" width="130" height="20" as="geometry" />
        </mxCell>
        <mxCell id="QwICaWlnhPRNakRHLjsk-25" value="" style="endArrow=classic;html=1;" edge="1" parent="k6OKG1xSVsAbGiAiQeUu-1">
          <mxGeometry width="50" height="50" relative="1" as="geometry">
            <mxPoint x="280" y="370" as="sourcePoint" />
            <mxPoint x="410" y="370" as="targetPoint" />
          </mxGeometry>
        </mxCell>
        <mxCell id="QwICaWlnhPRNakRHLjsk-26" value="2.上传传染病数据" style="text;html=1;strokeColor=none;fillColor=none;align=center;verticalAlign=middle;whiteSpace=wrap;rounded=0;" vertex="1" parent="k6OKG1xSVsAbGiAiQeUu-1">
          <mxGeometry x="284" y="340" width="130" height="20" as="geometry" />
        </mxCell>
        <mxCell id="QwICaWlnhPRNakRHLjsk-29" value="" style="endArrow=classic;html=1;" edge="1" parent="k6OKG1xSVsAbGiAiQeUu-1">
          <mxGeometry width="50" height="50" relative="1" as="geometry">
            <mxPoint x="410" y="380" as="sourcePoint" />
            <mxPoint x="280" y="380" as="targetPoint" />
          </mxGeometry>
        </mxCell>
        <mxCell id="QwICaWlnhPRNakRHLjsk-30" style="edgeStyle=orthogonalEdgeStyle;rounded=0;orthogonalLoop=1;jettySize=auto;html=1;exitX=0.5;exitY=1;exitDx=0;exitDy=0;" edge="1" parent="k6OKG1xSVsAbGiAiQeUu-1" source="QwICaWlnhPRNakRHLjsk-26" target="QwICaWlnhPRNakRHLjsk-26">
          <mxGeometry relative="1" as="geometry" />
        </mxCell>
        <mxCell id="QwICaWlnhPRNakRHLjsk-31" value="3.返回存储结果情况" style="text;html=1;strokeColor=none;fillColor=none;align=center;verticalAlign=middle;whiteSpace=wrap;rounded=0;" vertex="1" parent="k6OKG1xSVsAbGiAiQeUu-1">
          <mxGeometry x="284" y="390" width="130" height="20" as="geometry" />
        </mxCell>
        <mxCell id="Ri3POu8MJhUGmTm4oxZh-0" value="" style="endArrow=classic;html=1;" edge="1" parent="k6OKG1xSVsAbGiAiQeUu-1">
          <mxGeometry width="50" height="50" relative="1" as="geometry">
            <mxPoint x="435" y="522" as="sourcePoint" />
            <mxPoint x="745" y="522" as="targetPoint" />
          </mxGeometry>
        </mxCell>
        <mxCell id="bCJaADjjDQFqn7ukpDBr-0" value="7. 上传XML信息" style="text;html=1;strokeColor=none;fillColor=none;align=center;verticalAlign=middle;whiteSpace=wrap;rounded=0;" vertex="1" parent="k6OKG1xSVsAbGiAiQeUu-1">
          <mxGeometry x="525" y="492" width="130" height="20" as="geometry" />
        </mxCell>
        <mxCell id="bCJaADjjDQFqn7ukpDBr-1" value="" style="endArrow=classic;html=1;" edge="1" parent="k6OKG1xSVsAbGiAiQeUu-1">
          <mxGeometry width="50" height="50" relative="1" as="geometry">
            <mxPoint x="435" y="632" as="sourcePoint" />
            <mxPoint x="745" y="632" as="targetPoint" />
          </mxGeometry>
        </mxCell>
        <mxCell id="bCJaADjjDQFqn7ukpDBr-2" value="9. 查询反馈" style="text;html=1;strokeColor=none;fillColor=none;align=center;verticalAlign=middle;whiteSpace=wrap;rounded=0;" vertex="1" parent="k6OKG1xSVsAbGiAiQeUu-1">
          <mxGeometry x="535" y="602" width="130" height="20" as="geometry" />
        </mxCell>
        <mxCell id="bCJaADjjDQFqn7ukpDBr-3" value="" style="endArrow=classic;html=1;" edge="1" parent="k6OKG1xSVsAbGiAiQeUu-1">
          <mxGeometry width="50" height="50" relative="1" as="geometry">
            <mxPoint x="745" y="542" as="sourcePoint" />
            <mxPoint x="435" y="542" as="targetPoint" />
          </mxGeometry>
        </mxCell>
        <mxCell id="bCJaADjjDQFqn7ukpDBr-4" value="8. 返回主键ID" style="text;html=1;strokeColor=none;fillColor=none;align=center;verticalAlign=middle;whiteSpace=wrap;rounded=0;" vertex="1" parent="k6OKG1xSVsAbGiAiQeUu-1">
          <mxGeometry x="525" y="552" width="130" height="20" as="geometry" />
        </mxCell>
        <mxCell id="bCJaADjjDQFqn7ukpDBr-6" value="" style="endArrow=classic;html=1;" edge="1" parent="k6OKG1xSVsAbGiAiQeUu-1">
          <mxGeometry width="50" height="50" relative="1" as="geometry">
            <mxPoint x="745" y="642" as="sourcePoint" />
            <mxPoint x="435" y="642" as="targetPoint" />
          </mxGeometry>
        </mxCell>
        <mxCell id="bCJaADjjDQFqn7ukpDBr-8" value="10. 得到反馈信息" style="text;html=1;strokeColor=none;fillColor=none;align=center;verticalAlign=middle;whiteSpace=wrap;rounded=0;" vertex="1" parent="k6OKG1xSVsAbGiAiQeUu-1">
          <mxGeometry x="535" y="656.5" width="130" height="20" as="geometry" />
        </mxCell>
        <mxCell id="bCJaADjjDQFqn7ukpDBr-9" value="" style="endArrow=classic;html=1;" edge="1" parent="k6OKG1xSVsAbGiAiQeUu-1">
          <mxGeometry width="50" height="50" relative="1" as="geometry">
            <mxPoint x="435" y="430" as="sourcePoint" />
            <mxPoint x="745" y="430" as="targetPoint" />
          </mxGeometry>
        </mxCell>
        <mxCell id="bCJaADjjDQFqn7ukpDBr-10" value="5. 随机加密验证码" style="text;html=1;strokeColor=none;fillColor=none;align=center;verticalAlign=middle;whiteSpace=wrap;rounded=0;" vertex="1" parent="k6OKG1xSVsAbGiAiQeUu-1">
          <mxGeometry x="520" y="400" width="130" height="20" as="geometry" />
        </mxCell>
        <mxCell id="bCJaADjjDQFqn7ukpDBr-11" value="" style="endArrow=classic;html=1;" edge="1" parent="k6OKG1xSVsAbGiAiQeUu-1">
          <mxGeometry width="50" height="50" relative="1" as="geometry">
            <mxPoint x="740" y="450" as="sourcePoint" />
            <mxPoint x="430" y="450" as="targetPoint" />
          </mxGeometry>
        </mxCell>
        <mxCell id="bCJaADjjDQFqn7ukpDBr-12" value="6. 获取token" style="text;html=1;strokeColor=none;fillColor=none;align=center;verticalAlign=middle;whiteSpace=wrap;rounded=0;" vertex="1" parent="k6OKG1xSVsAbGiAiQeUu-1">
          <mxGeometry x="520" y="460" width="130" height="20" as="geometry" />
        </mxCell>
        <mxCell id="bCJaADjjDQFqn7ukpDBr-13" value="" style="endArrow=classic;html=1;" edge="1" parent="k6OKG1xSVsAbGiAiQeUu-1">
          <mxGeometry width="50" height="50" relative="1" as="geometry">
            <mxPoint x="440" y="753.5" as="sourcePoint" />
            <mxPoint x="600" y="753.5" as="targetPoint" />
          </mxGeometry>
        </mxCell>
        <mxCell id="bCJaADjjDQFqn7ukpDBr-14" value="13. 上传标准数据" style="text;html=1;strokeColor=none;fillColor=none;align=center;verticalAlign=middle;whiteSpace=wrap;rounded=0;" vertex="1" parent="k6OKG1xSVsAbGiAiQeUu-1">
          <mxGeometry x="450" y="730" width="130" height="20" as="geometry" />
        </mxCell>
        <mxCell id="bCJaADjjDQFqn7ukpDBr-15" value="" style="endArrow=classic;html=1;" edge="1" parent="k6OKG1xSVsAbGiAiQeUu-1">
          <mxGeometry width="50" height="50" relative="1" as="geometry">
            <mxPoint x="590" y="773.5" as="sourcePoint" />
            <mxPoint x="440" y="773.5" as="targetPoint" />
          </mxGeometry>
        </mxCell>
        <mxCell id="bCJaADjjDQFqn7ukpDBr-16" value="14. 返回存储情况" style="text;html=1;strokeColor=none;fillColor=none;align=center;verticalAlign=middle;whiteSpace=wrap;rounded=0;" vertex="1" parent="k6OKG1xSVsAbGiAiQeUu-1">
          <mxGeometry x="450" y="793.5" width="130" height="20" as="geometry" />
        </mxCell>
        <mxCell id="bCJaADjjDQFqn7ukpDBr-17" value="" style="endArrow=classic;html=1;" edge="1" parent="k6OKG1xSVsAbGiAiQeUu-1">
          <mxGeometry width="50" height="50" relative="1" as="geometry">
            <mxPoint x="430" y="680" as="sourcePoint" />
            <mxPoint x="270" y="680" as="targetPoint" />
          </mxGeometry>
        </mxCell>
        <mxCell id="bCJaADjjDQFqn7ukpDBr-18" value="11. 写入日志表" style="text;html=1;strokeColor=none;fillColor=none;align=center;verticalAlign=middle;whiteSpace=wrap;rounded=0;" vertex="1" parent="k6OKG1xSVsAbGiAiQeUu-1">
          <mxGeometry x="284" y="656.5" width="130" height="20" as="geometry" />
        </mxCell>
        <mxCell id="bCJaADjjDQFqn7ukpDBr-21" value="" style="endArrow=classic;html=1;" edge="1" parent="k6OKG1xSVsAbGiAiQeUu-1">
          <mxGeometry width="50" height="50" relative="1" as="geometry">
            <mxPoint x="270" y="710" as="sourcePoint" />
            <mxPoint x="120" y="710" as="targetPoint" />
          </mxGeometry>
        </mxCell>
        <mxCell id="bCJaADjjDQFqn7ukpDBr-22" value="12. 上传数据页面展示" style="text;html=1;strokeColor=none;fillColor=none;align=center;verticalAlign=middle;whiteSpace=wrap;rounded=0;" vertex="1" parent="k6OKG1xSVsAbGiAiQeUu-1">
          <mxGeometry x="130" y="690" width="130" height="20" as="geometry" />
        </mxCell>
        <mxCell id="bCJaADjjDQFqn7ukpDBr-23" value="反馈接口" style="text;html=1;strokeColor=none;fillColor=none;align=center;verticalAlign=middle;whiteSpace=wrap;rounded=0;" vertex="1" parent="k6OKG1xSVsAbGiAiQeUu-1">
          <mxGeometry x="130" y="880" width="130" height="20" as="geometry" />
        </mxCell>
        <mxCell id="bCJaADjjDQFqn7ukpDBr-24" value="调阅接口" style="text;html=1;strokeColor=none;fillColor=none;align=center;verticalAlign=middle;whiteSpace=wrap;rounded=0;" vertex="1" parent="k6OKG1xSVsAbGiAiQeUu-1">
          <mxGeometry x="130" y="930" width="130" height="20" as="geometry" />
        </mxCell>
        <mxCell id="bCJaADjjDQFqn7ukpDBr-25" value="轮询" style="text;html=1;strokeColor=none;fillColor=none;align=center;verticalAlign=middle;whiteSpace=wrap;rounded=0;" vertex="1" parent="k6OKG1xSVsAbGiAiQeUu-1">
          <mxGeometry x="470" y="590" width="40" height="20" as="geometry" />
        </mxCell>
        <mxCell id="bCJaADjjDQFqn7ukpDBr-26" value="还需要更新之前的主键ID" style="text;html=1;strokeColor=none;fillColor=none;align=center;verticalAlign=middle;whiteSpace=wrap;rounded=0;" vertex="1" parent="k6OKG1xSVsAbGiAiQeUu-1">
          <mxGeometry x="340" y="550" width="80" height="20" as="geometry" />
        </mxCell>
      </root>
    </mxGraphModel>
  </diagram>
</mxfile>
